# xmcd CD database file
#
# Track frame offsets:
#	150
#	26273
#	64597
#	90964
#	116576
#	170405
#	205651
#	242149
#	262401
#	305991
#
# Disc length: 4411 seconds
#
# Revision: 7
# Processed by: cddbd v1.5.2PL0 Copyright (c) Steve Scherf et al.
# Submitted via: CDex 1.51
#
DISCID=8511390a
DTITLE=ELKAWE - Halunder Suite
DYEAR=2007
DGENRE=New Age
TTITLE0=Trubel
TTITLE1=Alte Liebe
TTITLE2=Weg zum Horizont
TTITLE3=Ankunft
TTITLE4=Meerblick
TTITLE5=FL 5s
TTITLE6=16 Uhr
TTITLE7=256 Stufen
TTITLE8=Ein Tag auf der Düne
TTITLE9=Abschied
EXTD=YEAR: 2007
EXTT0=
EXTT1=
EXTT2=
EXTT3=
EXTT4=
EXTT5=
EXTT6=
EXTT7=
EXTT8=
EXTT9=
PLAYORDER=
